<svg xmlns="http://www.w3.org/2000/svg" width="45" height="45"><defs><linearGradient id="gw" gradientUnits="userSpaceOnUse" x1="10" y1="6" x2="34" y2="40"><stop offset="0" stop-color="#ffffff"/><stop offset="0.55" stop-color="#f3eee4"/><stop offset="1" stop-color="#bdb09a"/></linearGradient><linearGradient id="gw2" gradientUnits="userSpaceOnUse" x1="10" y1="6" x2="34" y2="40"><stop offset="0" stop-color="#f4f1ea"/><stop offset="1" stop-color="#bdb3a2"/></linearGradient><radialGradient id="gb" gradientUnits="userSpaceOnUse" cx="16" cy="12" r="27"><stop offset="0" stop-color="#9a9a9a"/><stop offset="0.3" stop-color="#3a3a3a"/><stop offset="1" stop-color="#000000"/></radialGradient></defs><path d="M22.5 9c-2.21 0-4 1.79-4 4 0 .89.29 1.71.78 2.38C17.33 16.5 16 18.59 16 21c0 2.03.94 3.84 2.41 5.03-3 1.06-7.41 5.55-7.41 13.47h23c0-7.92-4.41-12.41-7.41-13.47 1.47-1.19 2.41-3 2.41-5.03 0-2.41-1.33-4.5-3.28-5.62.49-.67.78-1.49.78-2.38 0-2.21-1.79-4-4-4z" fill="url(#gw)" stroke="#000" stroke-width="1.5" stroke-linecap="round"/></svg>