<svg xmlns="http://www.w3.org/2000/svg" width="45" height="45"><defs><linearGradient id="gw" gradientUnits="userSpaceOnUse" x1="10" y1="6" x2="34" y2="40"><stop offset="0" stop-color="#ffffff"/><stop offset="0.55" stop-color="#f3eee4"/><stop offset="1" stop-color="#bdb09a"/></linearGradient><linearGradient id="gw2" gradientUnits="userSpaceOnUse" x1="10" y1="6" x2="34" y2="40"><stop offset="0" stop-color="#f4f1ea"/><stop offset="1" stop-color="#bdb3a2"/></linearGradient><radialGradient id="gb" gradientUnits="userSpaceOnUse" cx="16" cy="12" r="27"><stop offset="0" stop-color="#9a9a9a"/><stop offset="0.3" stop-color="#3a3a3a"/><stop offset="1" stop-color="#000000"/></radialGradient></defs><g fill="url(#gw)" fill-rule="evenodd" stroke="#000" stroke-width="1.5" stroke-linecap="round" stroke-linejoin="round"><path d="M9 39h27v-3H9v3zm3-3v-4h21v4H12zm-1-22V9h4v2h5V9h5v2h5V9h4v5" stroke-linecap="butt"/><path d="M34 14l-3 3H14l-3-3"/><path d="M31 17v12.5H14V17" stroke-linecap="butt" stroke-linejoin="miter"/><path d="M31 29.5l1.5 2.5h-20l1.5-2.5"/><path d="M11 14h23" fill="none" stroke-linejoin="miter"/></g></svg>