<svg xmlns="http://www.w3.org/2000/svg" width="45" height="45"><defs><radialGradient id="gw" gradientUnits="userSpaceOnUse" cx="17" cy="13" r="34"><stop offset="0" stop-color="#fffdf7"/><stop offset="0.35" stop-color="#f6ecd8"/><stop offset="0.7" stop-color="#dccaa6"/><stop offset="1" stop-color="#a8916a"/></radialGradient><radialGradient id="gw2" gradientUnits="userSpaceOnUse" cx="17" cy="13" r="34"><stop offset="0" stop-color="#f3e9d4"/><stop offset="1" stop-color="#9e8762"/></radialGradient><linearGradient id="sh" x1="0" y1="0" x2="1" y2="0"><stop offset="0" stop-color="#ffffff" stop-opacity="0.55"/><stop offset="0.35" stop-color="#ffffff" stop-opacity="0"/></linearGradient></defs><g fill="none" fill-rule="evenodd" stroke="#2b1d12" stroke-width="1.5" stroke-linecap="round" stroke-linejoin="round"><path d="M22.5 11.63V6M20 8h5" stroke-linejoin="miter"/><path d="M22.5 25s4.5-7.5 3-10.5c0 0-1-2.5-3-2.5s-3 2.5-3 2.5c-1.5 3 3 10.5 3 10.5" fill="url(#gw)" stroke-linecap="butt" stroke-linejoin="miter"/><path d="M11.5 37c5.5 3.5 15.5 3.5 21 0v-7s9-4.5 6-10.5c-4-6.5-13.5-3.5-16 4V27v-3.5c-3.5-7.5-13-10.5-16-4-3 6 5 10 5 10V37z" fill="url(#gw)"/><path d="M11.5 30c5.5-3 15.5-3 21 0m-21 3.5c5.5-3 15.5-3 21 0m-21 3.5c5.5-3 15.5-3 21 0"/></g></svg>